<svg xmlns="http://www.w3.org/2000/svg" width="150" height="23" viewBox="0 0 150 23" fill="none"><g clip-path="url(#clip0_4991_1667)"><path d="M20.0825 6.40082C19.2873 4.53963 17.9711 2.94654 16.2916 1.81233C14.5691 0.646607 12.5354 0.0237359 10.4539 0.0244164C9.05823 0.0234846 7.67669 0.303504 6.39203 0.847709C4.52476 1.64034 2.92627 2.95336 1.78817 4.62937C0.621052 6.34812 -0.00189555 8.37683 4.33279e-06 10.4528V22.7775H2.47593V10.4528C2.47502 9.39196 2.68883 8.34187 3.10454 7.36545C3.7133 5.9428 4.71995 4.72519 6.00413 3.85822C7.3165 2.96827 8.86703 2.49301 10.4539 2.4943C11.5174 2.49338 12.57 2.70667 13.5488 3.12137C14.9752 3.7283 16.1959 4.73257 17.0647 6.01387C17.9568 7.32304 18.4332 8.86978 18.4319 10.4528V22.7775H20.9078V10.4528C20.9088 9.06051 20.6281 7.68235 20.0825 6.40082Z" fill="black"></path><path d="M93.7406 6.4011C92.9454 4.53991 91.6292 2.94683 89.9497 1.81262C88.2272 0.646889 86.1935 0.0240183 84.112 0.0246988C82.7163 0.023767 81.3348 0.303786 80.0501 0.847992C77.7973 1.80126 75.9487 3.50901 74.8232 5.67661C74.0137 4.12255 72.8285 2.79447 71.3747 1.81262C69.6519 0.648115 67.6181 0.0266665 65.5371 0.0288153C63.596 0.0274585 61.6936 0.569418 60.046 1.59307C59.1531 2.14649 58.3482 2.83007 57.6581 3.62112C57.5976 3.69247 57.5371 3.76519 57.4793 3.83792C56.6921 4.8348 56.0868 5.96205 55.6911 7.16814C55.3166 8.31557 55.0523 9.4959 54.9016 10.6932C54.7998 11.4383 54.6815 12.3 54.4889 13.2015C54.3445 13.8943 54.1529 14.5765 53.9153 15.2433C53.5681 16.2539 53.0395 17.1931 52.3555 18.015C52.0056 18.4248 51.6054 18.789 51.1643 19.099C50.6792 19.4374 50.1515 19.7105 49.5948 19.9113V19.921C48.8284 20.1613 48.0296 20.2835 47.2262 20.2832C46.0948 20.2934 44.9727 20.0793 43.925 19.6534C42.5181 19.0725 41.3249 18.073 40.5082 16.7911C39.6679 15.4533 39.2297 13.9033 39.2455 12.3247V0H36.7695V12.3247C36.7695 15.1513 37.8039 17.768 39.6499 19.6753C40.5911 20.6467 41.7222 21.415 42.9731 21.9325C44.3212 22.4853 45.766 22.7651 47.2234 22.7558C48.5735 22.7566 49.9107 22.4947 51.1602 21.9847L51.1423 21.9408C52.1795 21.4706 53.1166 20.8064 53.903 19.9841C54.5558 19.3032 55.11 18.5347 55.5494 17.7008C56.1324 16.5586 56.5669 15.3468 56.8424 14.0948C57.1107 12.9381 57.2551 11.8637 57.3706 11.0266C57.5646 9.60097 57.8727 8.22607 58.416 7.03367C58.681 6.44339 59.0187 5.8884 59.4215 5.38159C59.842 4.8542 60.3384 4.3918 60.8947 4.00944L60.8864 3.99709C61.0391 3.88594 61.1959 3.78029 61.3569 3.68149C62.6123 2.90114 64.062 2.488 65.5412 2.48909C66.6055 2.48958 67.6587 2.70474 68.6375 3.12165C70.064 3.7289 71.285 4.73307 72.1547 6.01416C73.0458 7.32374 73.5216 8.8703 73.5205 10.4531V22.7778H76.134V10.4531C76.1331 9.39225 76.3469 8.34215 76.7626 7.36573C77.3714 5.94308 78.3781 4.72547 79.6622 3.8585C80.9746 2.96855 82.5251 2.49329 84.112 2.49458C85.1754 2.49367 86.2281 2.70695 87.2069 3.12165C88.6333 3.72858 89.8539 4.73285 90.7227 6.01416C91.6149 7.32332 92.0913 8.87007 92.09 10.4531V22.7778H94.5659V10.4531C94.5669 9.06079 94.2862 7.68263 93.7406 6.4011Z" fill="black"></path><path d="M149.078 6.37229C148.283 4.5111 146.967 2.91802 145.287 1.78381C143.565 0.619535 141.531 -0.00189092 139.45 4.3222e-06C138.054 -0.000927485 136.673 0.279092 135.388 0.823297C133.522 1.6166 131.925 2.92956 130.788 4.60496C129.621 6.32371 128.998 8.35242 129 10.4284V22.749H131.476V10.4243C131.475 9.36343 131.689 8.31334 132.105 7.33692C132.713 5.91427 133.72 4.69666 135.004 3.82969C136.316 2.93974 137.867 2.46448 139.454 2.46577C140.517 2.46485 141.57 2.67814 142.549 3.09284C143.975 3.69977 145.196 4.70404 146.065 5.98535C146.957 7.29451 147.433 8.84126 147.432 10.4243V22.749H149.908V10.4243C149.907 9.0317 149.625 7.65352 149.078 6.37229Z" fill="black"></path><path d="M113.136 1.25977H110.66V22.7779H113.136V1.25977Z" fill="black"></path></g><defs><clipPath id="clip0_4991_1667"><rect width="150" height="22.7778" fill="white"></rect></clipPath></defs></svg>